ply
format ascii 1.0
comment Created by Blender 2.82 (sub 7) - www.blender.org, source file: 'untitled.blend'
element vertex 24
property float x
property float y
property float z
property float nx
property float ny
property float nz
property uchar red
property uchar green
property uchar blue
property uchar alpha
element face 12
property list uchar uint vertex_indices
end_header
-0.050000 0.050000 0.002100 0.000000 1.000000 -0.000000 252 252 252 255
0.050000 0.050000 0.002100 0.000000 1.000000 -0.000000 255 255 255 255
-0.050000 0.050000 0.002000 0.000000 1.000000 -0.000000 252 252 252 255
0.050000 0.050000 0.002000 0.000000 1.000000 0.000000 255 255 255 255
-0.050000 -0.050000 0.002000 -1.000000 -0.000000 0.000000 254 254 254 255
-0.050000 0.050000 0.002100 -1.000000 -0.000000 0.000000 252 252 252 255
-0.050000 0.050000 0.002000 -1.000000 -0.000000 0.000000 252 252 252 255
0.050000 -0.050000 0.002000 0.000000 0.000000 -1.000000 255 255 255 255
-0.050000 -0.050000 0.002000 0.000000 0.000000 -1.000000 254 254 254 255
-0.050000 0.050000 0.002000 0.000000 0.000000 -1.000000 252 252 252 255
0.050000 0.050000 0.002000 0.000000 0.000000 -1.000000 255 255 255 255
0.050000 0.050000 0.002100 1.000000 0.000000 -0.000000 255 255 255 255
0.050000 -0.050000 0.002100 1.000000 0.000000 -0.000000 255 255 255 255
0.050000 0.050000 0.002000 1.000000 0.000000 -0.000000 255 255 255 255
0.050000 -0.050000 0.002000 1.000000 0.000000 -0.000000 255 255 255 255
-0.050000 -0.050000 0.002100 -1.000000 -0.000000 0.000000 254 254 254 255
0.050000 -0.050000 0.002000 0.000000 -1.000000 0.000000 255 255 255 255
-0.050000 -0.050000 0.002100 0.000000 -1.000000 0.000000 254 254 254 255
-0.050000 -0.050000 0.002000 0.000000 -1.000000 0.000000 254 254 254 255
0.050000 -0.050000 0.002100 0.000000 -1.000000 0.000000 255 255 255 255
-0.050000 -0.050000 0.002100 0.000000 -0.000000 1.000000 254 254 254 255
0.050000 0.050000 0.002100 0.000000 -0.000000 1.000000 255 255 255 255
-0.050000 0.050000 0.002100 0.000000 -0.000000 1.000000 252 252 252 255
0.050000 -0.050000 0.002100 0.000000 -0.000000 1.000000 255 255 255 255
3 0 1 2
3 1 3 2
3 4 5 6
3 7 8 9
3 10 7 9
3 11 12 13
3 12 14 13
3 15 5 4
3 16 17 18
3 19 17 16
3 20 21 22
3 20 23 21
